<?xml version="1.0" encoding="UTF-8"?>
<!-- Created with Inkscape (http://www.inkscape.org/) -->
<svg width="442.4" height="233.59" version="1.1" viewBox="0 0 442.4 233.59" xmlns="http://www.w3.org/2000/svg">
  <defs>
    <marker id="marker52" overflow="visible" markerHeight="1" markerWidth="1" orient="auto-start-reverse" preserveAspectRatio="xMidYMid" viewBox="0 0 1 1">
      <path transform="rotate(180 .125 0)" d="m3-3-3 3 3 3" fill="none" stroke="context-stroke"/>
    </marker>
    <marker id="marker46" overflow="visible" markerHeight="1" markerWidth="1" orient="auto-start-reverse" preserveAspectRatio="xMidYMid" viewBox="0 0 1 1">
      <path transform="rotate(180 .125 0)" d="m3-3-3 3 3 3" fill="none" stroke="context-stroke"/>
    </marker>
    <marker id="ArrowWide" overflow="visible" markerHeight="1" markerWidth="1" orient="auto-start-reverse" preserveAspectRatio="xMidYMid" viewBox="0 0 1 1">
      <path transform="rotate(180 .125 0)" d="m3-3-3 3 3 3" fill="none" stroke="context-stroke"/>
    </marker>
    <marker id="marker52-9" overflow="visible" markerHeight="1" markerWidth="1" orient="auto-start-reverse" preserveAspectRatio="xMidYMid" viewBox="0 0 1 1">
      <path transform="rotate(180 .125 0)" d="m3-3-3 3 3 3" fill="none" stroke="context-stroke"/>
    </marker>
    <marker id="marker52-4" overflow="visible" markerHeight="1" markerWidth="1" orient="auto-start-reverse" preserveAspectRatio="xMidYMid" viewBox="0 0 1 1">
      <path transform="rotate(180 .125 0)" d="m3-3-3 3 3 3" fill="none" stroke="context-stroke"/>
    </marker>
    <marker id="marker52-6" overflow="visible" markerHeight="1" markerWidth="1" orient="auto-start-reverse" preserveAspectRatio="xMidYMid" viewBox="0 0 1 1">
      <path transform="rotate(180 .125 0)" d="m3-3-3 3 3 3" fill="none" stroke="context-stroke"/>
    </marker>
  </defs>
  <g transform="translate(-23.786 -36.638)">
    <g>
      <path
        transform="matrix(1.3333 0 0 -1.3333 57.701 255.11)"
        d="m158.71 2.1212-0.34326 5.0354-0.34326 2.7385-0.34326 2.1309-0.34326 1.8052-0.34328 1.597-0.34326 1.4461-0.34326 1.3305-0.34326 1.2409-0.34327 1.1654-0.34327 1.1035-0.34326 1.0502-0.34327 1.0035-0.34326 0.96303-0.34326 0.92699-0.34326 0.89416-0.34326 0.86544-0.34327 0.83911-0.34326 0.81456-0.34326 0.7924-0.34326 0.77236-0.34328 0.7526-0.34326 0.73462-0.34326 0.71873-0.34326 0.70452-0.34327 0.68825-0.34327 0.67546-0.34325 0.66264-0.34326 0.6509-0.34326 0.63841-0.34328 0.62874-0.34326 0.61732-0.34326 0.60833-0.34327 0.59829-0.34326 0.5893-0.34326 0.58133-0.34326 0.57303-0.34326 0.56439-0.34328 0.55779-0.34326 0.55018-0.34326 0.54224-0.34325 0.53669-0.34326 0.52874-0.34328 0.52389-0.34326 0.51767-0.34326 0.51213-0.34328 0.50591-0.34326 0.50001-0.34326 0.49585-0.34326 0.48999-0.34326 0.48547-0.34327 0.48064-0.34326 0.47545-0.34326 0.4706-0.34328 0.46784-0.34326 0.46195-0.34324 0.45746-0.34326 0.45537-0.34327 0.44984-0.34328 0.44603-0.34325 0.44328-0.34327 0.43807-0.34328 0.43567-0.34325 0.43219-0.34327 0.42804-0.34326 0.42561-0.34326 0.42215-0.34326 0.41872-0.34327 0.41522-0.34326 0.41283-0.34324 0.40934-0.34328 0.40694-0.34326 0.40312-0.34326 0.40107-0.34327 0.39826-0.34327 0.3969-0.34326 0.39241-0.34327 0.39067-0.34326 0.38721-0.34328 0.38582-0.34326 0.38305-0.34326 0.38063-0.34326 0.37789-0.34326 0.37646-0.34326 0.37372-0.34325 0.37131-0.34326 0.3692-0.34328 0.36716-0.34326 0.3654-0.34326 0.36262-0.34326 0.36129-0.34328 0.35847-0.34326 0.35745-0.34326 0.35434-0.34327 0.35364-0.34327 0.35158-0.34326 0.34913-0.34327 0.34847-0.6865 0.68997-67.817-0.07204 0.3377-67.991 101.31-0.11257z"
        fill="#ffb8b8"
      />
      <path
        transform="matrix(1.3333 0 0 -1.3333 57.701 255.11)"
        d="m158.71 1.1865-1.0305 5.7517-1.0305 2.8022-1.0305 2.1596-1.0305 1.8239-1.0305 1.6091-1.0305 1.4544-1.0305 1.3388-1.0305 1.2464-1.0305 1.1706-1.0305 1.1076-1.0305 1.0537-1.0305 1.0073-1.0305 0.96578-1.0305 0.92943-1.0305 0.89656-1.0305 0.86753-1.0305 0.84084-1.0305 0.81664-1.0305 0.79414-1.0305 0.77338-1.0305 0.75435-1.0305 0.73705-1.0305 0.72044-1.0305 0.70418-1.0305 0.69033-1.0305 0.67649-1.0305 0.66404-1.0305 0.65123-1.0305 0.64014-1.0305 0.62909-1.0305 0.61836-1.0305 0.60869-1.0305 0.59932-1.0305 0.59032-1.0305 0.58167-1.0305 0.57372-1.0305 0.56543-1.0305 0.55814-1.0304 0.55089-1.0305 0.54327-1.0305 0.5367-1.0305 0.53047-1.0305 0.52425-1.0305 0.51799-1.0305 0.51248-1.0305 0.50659-1.0305 0.50104-1.0305 0.49553-1.0305 0.49102-1.0305 0.48548-1.0305 0.48098-1.0305 0.47614-1.0305 0.47165-1.0305 0.46747-1.0305 0.463-1.0305 0.45849-1.0305 0.45502-1.0305 0.45019-1.0305 0.44675-1.0305 0.4429-1.0305 0.43947-1.0305 0.436-1.0305 0.43219-1.0305 0.42873-1.0305 0.42563-1.0305 0.42215-1.0305 0.4194-1.0305 0.41628-1.0305 0.41247-1.0305 0.41004-1.0305 0.4066-1.0305 0.40485-1.0305 0.40104-1.0305 0.3983-1.0305 0.39655-1.0305 0.39273-1.0305 0.39067-1.0305 0.38859-1.0305 0.38549-1.0305 0.3834-1.0305 0.38099-1.0305 0.3782-1.0305 0.3765-1.0305 0.37439-1.0305 0.37129-1.0305 0.36956-1.0305 0.36783-1.0305 0.36507-1.0305 0.36333-1.0305 0.36091-1.0305 0.35988-1.0305 0.3571-1.0305 0.35537-1.0305 0.35331-1.0305 0.35192-1.0305 0.34983-1.0305 0.34777-1.0305 0.34602-1.0305 0.34466-45.149 0.26391-0.67541-68.104 147.91-0.56284z"
        fill="#ffd9b3"
      />
      <path
        transform="matrix(1.3333 0 0 -1.3333 57.701 255.11)"
        d="m113.36 1.1865-1.0305 5.7517-1.0305 2.8022-1.0305 2.1596-1.0305 1.8239-1.0305 1.6091-1.0305 1.4544-1.0305 1.3388-1.0305 1.2464-1.0305 1.1706-1.0305 1.1076-1.0305 1.0537-1.0305 1.0073-1.0305 0.96578-1.0305 0.92943-1.0305 0.89656-1.0305 0.86753-1.0304 0.84084-1.0305 0.81664-1.0305 0.79414-1.0305 0.77338-1.0305 0.75435-1.0305 0.73705-1.0304 0.72044-1.0305 0.70418-1.0305 0.69033-1.0305 0.67649-1.0305 0.66404-1.0305 0.65123-1.0305 0.64014-1.0305 0.62909-1.0305 0.61836-1.0305 0.60869-1.0305 0.59932-1.0305 0.59032-1.0305 0.58167-1.0305 0.57372-1.0305 0.56543-1.0305 0.55814-1.0305 0.55089-1.0305 0.54327-1.0305 0.5367-1.0305 0.53047-1.0305 0.52425-1.0305 0.51799-1.0305 0.51248-1.0305 0.50659-1.0305 0.50104-1.0305 0.49553-1.0305 0.49102-1.0305 0.48548-1.0305 0.48098-1.0305 0.47614-1.0305 0.47165-1.0305 0.46747-1.0305 0.463-1.0305 0.45849-1.0305 0.45502-1.0305 0.45019-1.0305 0.44675-1.0305 0.4429-1.0305 0.43947-1.0305 0.436-1.0305 0.43219-1.0305 0.42873-1.0305 0.42563-1.0305 0.42215-1.0305 0.4194-1.0305 0.41628-1.0305 0.41247-1.0305 0.41004-1.0305 0.4066-1.0305 0.40485-1.0305 0.40104-1.0305 0.3983-1.0305 0.39655-1.0305 0.39273-1.0305 0.39067-1.0305 0.38859-1.0305 0.38549-1.0305 0.3834-1.0305 0.38099-1.0305 0.3782-1.0305 0.3765-1.0305 0.37439-1.0305 0.37129-1.0305 0.36956-1.0305 0.36783-1.0305 0.36507-1.0304 0.36333-1.0305 0.36091-1.0305 0.35988-1.0305 0.3571-1.0305 0.35537-1.0305 0.35331-1.0305 0.35192-1.0305 0.34983-1.0305 0.34777-1.0305 0.34602-1.0305 0.34466-11.389-0.18636v-67.991l113.24 0.11257z"
        fill="#d9d9d9"
      />
    </g>
    <g fill="none" stroke-miterlimit="10">
      <path
        d="m254.22 179.84 0.1526 0.37552 0.15262 0.37893 0.15259 0.37855 0.15263 0.38193 0.1526 0.38194 0.15261 0.38498 0.15262 0.38838 0.15258 0.38801 0.15263 0.39328 0.15259 0.39292 0.15262 0.3948 0.15262 0.39971 0.1526 0.39935 0.1526 0.40276 0.1526 0.40614 0.15261 0.40729 0.15261 0.41069 0.15262 0.41106 0.15262 0.41524 0.15259 0.41749 0.15262 0.42015 0.1526 0.42355 0.15259 0.42545 0.15262 0.42845 0.15261 0.433 0.15262 0.43338 0.1526 0.4379 0.15259 0.43982 0.15262 0.44283 0.15262 0.44586 0.15261 0.45078 0.15262 0.45266 0.1526 0.45721 0.15262 0.45908 0.15259 0.46516 0.15263 0.46512 0.15259 0.47198 0.15262 0.47496 0.15261 0.47801 0.15259 0.48291 0.15262 0.48633 0.1526 0.49086 0.15259 0.49426 0.15263 0.50069 0.15262 0.50373 0.1526 0.50862 0.1526 0.51356 0.15261 0.51807 0.1526 0.52303 0.1526 0.52943 0.15262 0.53282 0.15262 0.54078 0.1526 0.54531 0.15262 0.55064 0.15259 0.55815 0.15261 0.56346 0.15261 0.57104 0.15262 0.57595 0.15261 0.58427 0.15262 0.59184 0.15261 0.59863 0.15259 0.60808 0.15262 0.61454 0.1526 0.62245 0.15262 0.63228 0.15262 0.64327 0.15259 0.65009 0.15261 0.66253 0.15261 0.67238 0.15259 0.68336 0.15261 0.69469 0.15262 0.70754 0.15262 0.72041 0.1526 0.73516 0.15259 0.74914 0.15262 0.7654 0.1526 0.78282 0.15261 0.79753 0.15262 0.81837 0.15259 0.83764 0.15262 0.86298 0.1526 0.88263 0.15262 0.91139 0.15259 0.9371 0.15263 0.97225 0.1526 1.0029 0.15261 1.0445 0.15261 1.0861 0.15261 1.1345 0.15261 1.1939 0.15262 1.2563 0.1526 1.3398 0.15263 1.4295 0.15259 1.5531 0.15262 1.704 0.1526 1.9192 0.15259 2.238 0.15262 2.8143 0.15262 4.4238"
        stroke="#090"
        stroke-dasharray="0.906399, 0.906399"
        stroke-width=".9064"
      />
      <g>
        <path
          transform="matrix(1.3333 0 0 -1.3333 57.701 255.11)"
          d="m124.73 68.03 0.34324-0.34498 0.34326-0.34499 0.34327-0.34847 0.34326-0.34913 0.34327-0.35158 0.34327-0.35364 0.34326-0.35434 0.34326-0.35745 0.34328-0.35847 0.34326-0.36129 0.34326-0.36262 0.34326-0.3654 0.34328-0.36716 0.34326-0.3692 0.34325-0.37131 0.34326-0.37372 0.34326-0.37646 0.34326-0.37789 0.34326-0.38063 0.34326-0.38305 0.34328-0.38582 0.34326-0.38721 0.34327-0.39067 0.34326-0.39241 0.34327-0.3969 0.34327-0.39826 0.34326-0.40107 0.34326-0.40312 0.34328-0.40694 0.34324-0.40934 0.34326-0.41283 0.34327-0.41522 0.34326-0.41872 0.34326-0.42215 0.34326-0.42561 0.34327-0.42804 0.34325-0.43219 0.34328-0.43567 0.34327-0.43807 0.34325-0.44328 0.34328-0.44603 0.34327-0.44984 0.34326-0.45537 0.34324-0.45746 0.34326-0.46195 0.34328-0.46784 0.34326-0.4706 0.34326-0.47545 0.34327-0.48064 0.34326-0.48547 0.34326-0.48999 0.34326-0.49585 0.34326-0.50001 0.34328-0.50591 0.34326-0.51213 0.34326-0.51767 0.34328-0.52389 0.34326-0.52874 0.34325-0.53669 0.34326-0.54224 0.34326-0.55018 0.34328-0.55779 0.34326-0.56439 0.34326-0.57303 0.34326-0.58133 0.34326-0.5893 0.34327-0.59829 0.34326-0.60833 0.34326-0.61732 0.34328-0.62874 0.34326-0.63841 0.34326-0.6509 0.34325-0.66264 0.34327-0.67546 0.34327-0.68825 0.34326-0.70452 0.34326-0.71873 0.34326-0.73462 0.34328-0.7526 0.34326-0.77236 0.34326-0.7924 0.34326-0.81456 0.34327-0.83911 0.34326-0.86544 0.34326-0.89416 0.34326-0.92699 0.34326-0.96303 0.34327-1.0035 0.34326-1.0502 0.34327-1.1035 0.34327-1.1654 0.34326-1.2409 0.34326-1.3305 0.34326-1.4461 0.34328-1.597 0.34326-1.8052 0.34326-2.1309 0.34326-2.7385 0.34326-5.0354"
          stroke="#e60000"
          stroke-width="1.2"
        />
        <path
          d="m72.82 164.4 1.3739 0.45955 1.374 0.46136 1.374 0.46369 1.374 0.46644 1.374 0.46923 1.374 0.47108 1.374 0.47383 1.374 0.47613 1.374 0.47984 1.374 0.48121 1.3739 0.48444 1.374 0.48676 1.374 0.49044 1.374 0.49275 1.374 0.49505 1.3739 0.49919 1.374 0.502 1.374 0.50427 1.374 0.50798 1.374 0.5112 1.374 0.51399 1.374 0.51812 1.374 0.52089 1.374 0.52364 1.374 0.52874 1.374 0.53106 1.374 0.53472 1.374 0.5398 1.374 0.54214 1.374 0.54672 1.374 0.54996 1.374 0.55504 1.374 0.5592 1.374 0.56286 1.374 0.56751 1.374 0.57164 1.374 0.57625 1.374 0.58134 1.374 0.58596 1.374 0.59053 1.374 0.59567 1.374 0.60025 1.374 0.60669 1.374 0.61132 1.374 0.61734 1.374 0.62329 1.374 0.62886 1.374 0.63486 1.374 0.6413 1.374 0.64731 1.374 0.65469 1.374 0.66071 1.374 0.66805 1.374 0.67546 1.374 0.6833 1.374 0.69066 1.374 0.699 1.374 0.70729 1.3739 0.7156 1.374 0.72436 1.374 0.73452 1.374 0.74419 1.374 0.7539 1.374 0.76496 1.374 0.77556 1.374 0.7871 1.374 0.79909 1.374 0.81159 1.374 0.82448 1.374 0.83878 1.374 0.85352 1.374 0.86831 1.374 0.88539 1.374 0.90198 1.374 0.92044 1.374 0.93891 1.3739 0.96059 1.374 0.98273 1.374 1.0058 1.374 1.0312 1.374 1.0589 1.374 1.0888 1.3739 1.1211 1.374 1.1567 1.374 1.1954 1.374 1.2392 1.374 1.2877 1.374 1.343 1.374 1.4049 1.374 1.4769 1.374 1.5608 1.374 1.6619 1.3739 1.785 1.374 1.9392 1.374 2.1454 1.374 2.4319 1.374 2.8794 1.374 3.7362 1.374 7.669"
          stroke="#000"
          stroke-width="1.6"
        />
        <path
          transform="matrix(1.3333 0 0 -1.3333 57.701 255.11)"
          d="m56.694 68.032 1.0305-0.34466 1.0305-0.34602 1.0305-0.34777 1.0305-0.34983 1.0305-0.35192 1.0305-0.35331 1.0305-0.35537 1.0305-0.3571 1.0305-0.35988 1.0305-0.36091 1.0305-0.36333 1.0305-0.36507 1.0305-0.36783 1.0305-0.36956 1.0305-0.37129 1.0305-0.37439 1.0305-0.3765 1.0305-0.3782 1.0305-0.38099 1.0305-0.3834 1.0305-0.38549 1.0305-0.38859 1.0305-0.39067 1.0305-0.39273 1.0305-0.39655 1.0305-0.3983 1.0305-0.40104 1.0305-0.40485 1.0305-0.4066 1.0305-0.41004 1.0305-0.41247 1.0305-0.41628 1.0305-0.4194 1.0305-0.42215 1.0305-0.42563 1.0305-0.42873 1.0305-0.43219 1.0305-0.436 1.0305-0.43947 1.0305-0.4429 1.0305-0.44675 1.0305-0.45019 1.0305-0.45502 1.0305-0.45849 1.0305-0.463 1.0305-0.46747 1.0305-0.47165 1.0305-0.47614 1.0305-0.48098 1.0305-0.48548 1.0305-0.49102 1.0305-0.49553 1.0305-0.50104 1.0305-0.50659 1.0305-0.51248 1.0305-0.51799 1.0305-0.52425 1.0305-0.53047 1.0305-0.5367 1.0305-0.54327 1.0304-0.55089 1.0305-0.55814 1.0305-0.56543 1.0305-0.57372 1.0305-0.58167 1.0305-0.59032 1.0305-0.59932 1.0305-0.60869 1.0305-0.61836 1.0305-0.62909 1.0305-0.64014 1.0305-0.65123 1.0305-0.66404 1.0305-0.67649 1.0305-0.69033 1.0305-0.70418 1.0305-0.72044 1.0305-0.73705 1.0305-0.75435 1.0305-0.77338 1.0305-0.79414 1.0305-0.81664 1.0305-0.84084 1.0305-0.86753 1.0305-0.89656 1.0305-0.92943 1.0305-0.96578 1.0305-1.0073 1.0305-1.0537 1.0305-1.1076 1.0305-1.1706 1.0305-1.2464 1.0305-1.3388 1.0305-1.4544 1.0305-1.6091 1.0305-1.8239 1.0305-2.1596 1.0305-2.8022 1.0305-5.7517"
          stroke="#ff8c00"
          stroke-width="1.2"
        />
      </g>
    </g>
    <path d="m57.701 73.241v-36.284h302.37v36.284z" fill="#e6e6e6"/>
    <g stroke="#000" stroke-miterlimit="10" stroke-width="1.0627">
      <path d="m57.701 73.454h302.37" fill="none"/>
      <path d="m57.701 37.17h302.37" fill="none"/>
      <path d="m72.82 65.894v-21.167h45.357v21.167z" fill="#fff"/>
      <path d="m90.964 60.809v-10.997l10.885 5.4985z"/>
    </g>
    <g fill="#ccc" stroke="#000" stroke-miterlimit="10" stroke-width="1.0627">
      <path d="m299.6 71.186v-4.5353h30.237v4.5353z"/>
      <path d="m299.6 62.115v-4.5353h30.237v4.5353z"/>
      <path d="m299.6 53.044v-4.5353h30.237v4.5353z"/>
      <path d="m299.6 43.973v-4.5353h30.237v4.5353z"/>
    </g>
    <g fill="none" stroke="#000" stroke-miterlimit="10" stroke-width=".79701">
      <path transform="matrix(1.3333 0 0 -1.3333 57.701 255.11)" d="m113.39-6.8033v170.47" stroke-dasharray="2.98883, 2.98883"/>
      <path transform="matrix(1.3333 0 0 -1.3333 57.701 255.11)" d="m158.74-6.8033v170.31" stroke-dasharray="2.98883, 2.98883"/>
      <path transform="matrix(1.3333 0 0 -1.3333 57.701 255.11)" d="m-11.339 0h211.33"/>
    </g>
    <path transform="matrix(1.3333 0 0 -1.3333 321.06 255.11)" d="m5.4405 0-4.1535 1.5706 1.3773-1.5706-1.3773-1.5706z" stroke="#000" stroke-miterlimit="10" stroke-width=".79701"/>
    <g transform="matrix(1.3333 0 0 1.3333 11.069 148.56)" aria-label="v[m/s]">
      <path
        d="m28.754-5.1676c0-0.53906-0.25781-0.70312-0.44531-0.70312-0.24609 0-0.48047 0.25781-0.48047 0.48047 0 0.12891 0.04687 0.1875 0.15234 0.30469 0.21094 0.19922 0.33984 0.45703 0.33984 0.80859 0 0.42188-0.60938 2.707-1.7695 2.707-0.50391 0-0.73828-0.35156-0.73828-0.86719 0-0.5625 0.26953-1.2891 0.57422-2.1211 0.07031-0.16406 0.12891-0.30469 0.12891-0.49219 0-0.44531-0.32812-0.82031-0.82031-0.82031-0.9375 0-1.3125 1.4531-1.3125 1.5352 0 0.10547 0.09375 0.10547 0.11719 0.10547 0.09375 0 0.10547-0.023437 0.15234-0.1875 0.29297-0.99609 0.72656-1.2305 1.0078-1.2305 0.08203 0 0.25781 0 0.25781 0.31641 0 0.24609-0.10547 0.51562-0.17578 0.70312-0.43359 1.1484-0.5625 1.6055-0.5625 2.0391 0 1.0781 0.86719 1.2305 1.3359 1.2305 1.6641 0 2.2383-3.293 2.2383-3.8086z"
      />
    </g>
    <path transform="matrix(1.3333 0 0 -1.3333 57.701 255.11)" d="m0-11.339v86.6" fill="none" stroke="#000" stroke-miterlimit="10" stroke-width=".79701"/>
    <path transform="matrix(0 -1.3333 -1.3333 0 57.701 158.05)" d="m5.4405 0-4.1535 1.5706 1.3773-1.5706-1.3773-1.5706z" stroke="#000" stroke-miterlimit="10" stroke-width=".79701"/>
    <g transform="matrix(1.3333 0 0 1.3333 327.23 270.03)" aria-label="d[m]">
      <path
        d="m5.1435-6.8092s0-0.10547-0.12891-0.10547c-0.15234 0-1.1016 0.09375-1.2656 0.10547-0.082031 0.011719-0.14062 0.070312-0.14062 0.19922 0 0.11719 0.082031 0.11719 0.23438 0.11719 0.48047 0 0.50391 0.070312 0.50391 0.16406l-0.035156 0.19922-0.59766 2.3672c-0.17578-0.375-0.46875-0.64453-0.91406-0.64453-1.1719 0-2.4023 1.4648-2.4023 2.918 0 0.9375 0.55078 1.5938 1.3242 1.5938 0.19922 0 0.70312-0.035156 1.3008-0.73828 0.070312 0.41016 0.42188 0.73828 0.90234 0.73828 0.35156 0 0.57422-0.22266 0.73828-0.53906 0.16406-0.36328 0.29297-0.97266 0.29297-0.99609 0-0.09375-0.082031-0.09375-0.11719-0.09375-0.09375 0-0.10547 0.035156-0.14062 0.17578-0.16406 0.64453-0.35156 1.2422-0.75 1.2422-0.26953 0-0.30469-0.25781-0.30469-0.45703 0-0.24609 0.023437-0.31641 0.058594-0.48047zm-2.0742 5.625c-0.046875 0.17578-0.046875 0.19922-0.19922 0.36328-0.44531 0.55078-0.84375 0.71484-1.125 0.71484-0.50391 0-0.64453-0.55078-0.64453-0.9375 0-0.50391 0.32812-1.7227 0.55078-2.1797 0.30469-0.59766 0.76172-0.96094 1.1602-0.96094 0.64453 0 0.78516 0.82031 0.78516 0.87891 0 0.058594-0.023437 0.11719-0.035156 0.16406z"
      />
    </g>
    <g>
      <text x="276.13824" y="144.76193" fill="#ff0202" font-family="Sans" font-size="10.667px" xml:space="preserve">
        <tspan x="276.13824" y="144.76193" fill="#ff0202" font-size="10.667px">no_stop_decision.min_acc</tspan>
      </text>
      <text x="276.10178" y="201.90045" fill="#009a00" font-family="Sans" font-size="10.667px" xml:space="preserve">
        <tspan x="276.10178" y="201.90045" fill="#009a00" font-size="10.667px">if enable_no_stop_decision=true</tspan>
      </text>
      <g stroke-linejoin="bevel" stroke-miterlimit="3.1">
        <path d="m277.64 147.52-43.938 26.533" fill="#ff0202" marker-end="url(#marker52)" stroke="#f00" style="paint-order:normal"/>
        <path d="m291.07 193.34-6.7924-12.099" fill="#090" marker-end="url(#marker52-6)" stroke="#090" style="paint-order:normal"/>
        <path d="m106.07 124.96-19.316 42.452" fill="#ff0202" marker-end="url(#marker52-4)" stroke="#000" style="paint-order:normal"/>
      </g>
      <text x="23.208326" y="118.81218" fill="#ff8002" font-family="Sans" font-size="10.667px" xml:space="preserve">
        <tspan x="23.208326" y="118.81218" fill="#ff8002" font-size="10.667px">stop_position.min_acc_preferred</tspan>
      </text>
      <path d="m111.93 124.97 21.226 38.419" fill="#ff8002" marker-end="url(#marker52-9)" stroke="#ff8000" stroke-linejoin="bevel" stroke-miterlimit="3.1" style="paint-order:normal"/>
    </g>
  </g>
  <g transform="translate(-23.786 -36.638)">
    <g fill="none">
      <g stroke-miterlimit="10">
        <g>
          <path
            d="m115.29 164.4 1.374 0.45955 1.374 0.46136 1.374 0.46369 1.374 0.46644 1.374 0.46923 1.374 0.47108 1.374 0.47383 1.374 0.47613 1.374 0.47984 1.374 0.48121 1.374 0.48444 1.374 0.48676 1.374 0.49044 1.374 0.49275 1.374 0.49505 1.374 0.49919 1.374 0.502 1.374 0.50427 1.374 0.50798 1.374 0.5112 1.374 0.51399 1.374 0.51812 1.374 0.52089 1.374 0.52364 1.374 0.52874 1.374 0.53106 1.374 0.53472 1.374 0.5398 1.374 0.54214 1.374 0.54672 1.374 0.54996 1.374 0.55504 1.374 0.5592 1.374 0.56286 1.374 0.56751 1.374 0.57164 1.374 0.57625 1.374 0.58134 1.374 0.58596 1.374 0.59053 1.374 0.59567 1.374 0.60025 1.374 0.60669 1.374 0.61132 1.374 0.61734 1.374 0.62329 1.374 0.62886 1.374 0.63486 1.374 0.6413 1.374 0.64731 1.374 0.65469 1.374 0.66071 1.374 0.66805 1.374 0.67546 1.374 0.6833 1.374 0.69066 1.374 0.699 1.374 0.70729 1.374 0.7156 1.374 0.72436 1.3739 0.73452 1.374 0.74419 1.374 0.7539 1.374 0.76496 1.374 0.77556 1.374 0.7871 1.374 0.79909 1.374 0.81159 1.374 0.82448 1.374 0.83878 1.374 0.85352 1.374 0.86831 1.374 0.88539 1.374 0.90198 1.374 0.92044 1.374 0.93891 1.374 0.96059 1.374 0.98273 1.374 1.0058 1.374 1.0312 1.374 1.0589 1.374 1.0888 1.374 1.1211 1.374 1.1567 1.374 1.1954 1.374 1.2392 1.374 1.2877 1.374 1.343 1.374 1.4049 1.374 1.4769 1.374 1.5608 1.374 1.6619 1.374 1.785 1.374 1.9392 1.374 2.1454 1.374 2.4319 1.374 2.8794 1.374 3.7362 1.374 7.669"
            stroke="#ff8c00"
          />
          <path
            d="m135.38 182.17 1.374 0.57164 1.374 0.57625 1.374 0.58134 1.374 0.58596 1.374 0.59053 1.374 0.59567 1.374 0.60025 1.374 0.60669 1.374 0.61132 1.374 0.61734 1.374 0.62329 1.374 0.62886 1.374 0.63486 1.374 0.6413 1.374 0.64731 1.374 0.65469 1.374 0.66071 1.374 0.66805 1.374 0.67546 1.374 0.6833 1.374 0.69066 1.374 0.699 1.374 0.70729 1.374 0.7156 1.374 0.72436 1.3739 0.73452 1.374 0.74419 1.374 0.7539 1.374 0.76496 1.374 0.77556 1.374 0.7871 1.374 0.79909 1.374 0.81159 1.374 0.82448 1.374 0.83878 1.374 0.85352 1.374 0.86831 1.374 0.88539 1.374 0.90198 1.374 0.92044 1.374 0.93891 1.374 0.96059 1.374 0.98273 1.374 1.0058 1.374 1.0312 1.374 1.0589 1.374 1.0888 1.374 1.1211 1.374 1.1567 1.374 1.1954 1.374 1.2392 1.374 1.2877 1.374 1.343 1.374 1.4049 1.374 1.4769 1.374 1.5608 1.374 1.6619 1.374 1.785 1.374 1.9392 1.374 2.1454 1.374 2.4319 1.374 2.8794 1.374 3.7362 1.374 7.669"
            stroke="#ff8c00"
          />
          <path
            d="m205.43 164.49 1.285 0.91824 0.64257 0.46377 0.64254 0.46463 0.64257 0.4679 0.64256 0.47064 0.64255 0.47158 0.64255 0.47571 0.64258 0.47707 0.64255 0.48083 0.64254 0.48258 0.64255 0.4863 0.64258 0.48863 0.64255 0.49135 0.64252 0.49417 0.64255 0.49735 0.64254 0.50102 0.64255 0.50291 0.64255 0.50656 0.64255 0.50978 0.64258 0.51347 0.64255 0.51532 0.64256 0.51993 0.64255 0.52224 0.64256 0.52821 0.64256 0.53002 0.64255 0.53377 0.64254 0.53649 0.64259 0.54158 0.64251 0.54477 0.64255 0.54941 0.64256 0.5526 0.64255 0.55725 0.64254 0.56181 0.64255 0.56643 0.64256 0.56966 0.64253 0.57517 0.64258 0.57982 0.64257 0.583 0.64252 0.58994 0.64259 0.5936 0.64257 0.59867 0.64254 0.60602 0.64251 0.60881 0.64255 0.61479 0.64258 0.62263 0.64254 0.62629 0.64255 0.63276 0.64256 0.63966 0.64255 0.64609 0.64254 0.6521 0.64255 0.6599 0.64255 0.66544 0.64258 0.67329 0.64255 0.68157 0.64255 0.68893 0.64258 0.69723 0.64255 0.70367 0.64252 0.71425 0.64255 0.72165 0.64254 0.7322 0.64258 0.74234 0.64255 0.75111 0.64255 0.76262 0.64254 0.77366 0.64255 0.78427 0.64257 0.79623 0.64255 0.8096 0.64254 0.82156 0.64258 0.83676 0.64255 0.84963 0.64254 0.86625 0.64253 0.88188 0.64256 0.89893 0.64257 0.91595 0.64254 0.93761 0.64255 0.95653 0.64255 0.97766 0.64259 1.0016 0.64254 1.0279 0.64255 1.0546 0.64254 1.0841 0.64257 1.1167 0.64254 1.1518 0.64255 1.19 0.64254 1.2337 0.64255 1.2817 0.64256 1.3355 0.64255 1.3977 0.64257 1.4686 0.64256 1.551 0.64255 1.6514 0.64254 1.7707 0.64255 1.9245 0.64258 2.1253 0.64255 2.4025 0.64254 2.8359 0.64255 3.6445 0.64254 6.7014"
            stroke="#e60000"
          />
        </g>
        <path
          d="m173.18 171.12 1.9345 0.84811 0.96729 0.42835 0.96726 0.42914 0.96729 0.43216 0.96729 0.4347 0.96725 0.43556 0.96727 0.43937 0.96731 0.44063 0.96727 0.44411 0.96725 0.44572 0.96727 0.44915 0.96731 0.45132 0.96727 0.45382 0.96722 0.45642 0.96727 0.45937 0.96725 0.46274 0.96727 0.46451 0.96725 0.46786 0.96727 0.47085 0.96731 0.47425 0.96727 0.47596 0.96728 0.48022 0.96727 0.48235 0.96728 0.48787 0.96729 0.48954 0.96726 0.49299 0.96726 0.49552 0.96732 0.50021 0.9672 0.50316 0.96726 0.50745 0.96729 0.51039 0.96726 0.51469 0.96726 0.5189 0.96726 0.52317 0.96728 0.52615 0.96724 0.53124 0.96731 0.53553 0.9673 0.53848 0.96722 0.54487 0.96732 0.54827 0.96729 0.55294 0.96726 0.55974 0.9672 0.56231 0.96727 0.56783 0.96731 0.57507 0.96726 0.57846 0.96726 0.58443 0.96729 0.5908 0.96726 0.59674 0.96726 0.60229 0.96726 0.6095 0.96727 0.61461 0.96731 0.62187 0.96726 0.62951 0.96726 0.63632 0.96732 0.64397 0.96726 0.64992 0.96723 0.6597 0.96726 0.66653 0.96726 0.67627 0.96731 0.68564 0.96727 0.69375 0.96726 0.70437 0.96726 0.71457 0.96726 0.72437 0.96729 0.73541 0.96726 0.74777 0.96726 0.75881 0.96731 0.77284 0.96727 0.78473 0.96725 0.80009 0.96724 0.81452 0.96728 0.83028 0.9673 0.84599 0.96725 0.866 0.96727 0.88347 0.96725 0.90299 0.96733 0.9251 0.96725 0.94938 0.96726 0.97402 0.96726 1.0013 0.96729 1.0314 0.96726 1.0638 0.96726 1.0991 0.96726 1.1395 0.96726 1.1838 0.96729 1.2335 0.96726 1.2909 0.96729 1.3564 0.96728 1.4326 0.96727 1.5253 0.96725 1.6354 0.96727 1.7775 0.96731 1.963 0.96727 2.219 0.96725 2.6192 0.96727 3.3662 0.96725 6.1896"
          stroke="#e60000"
          stroke-width=".96178"
        />
        <path
          transform="matrix(1.3333 0 0 -1.3333 57.701 255.11)"
          d="m113.36 1.1865-1.0305 5.7517-1.0305 2.8022-1.0305 2.1596-1.0305 1.8239-1.0305 1.6091-1.0305 1.4544-1.0305 1.3388-1.0305 1.2464-1.0305 1.1706-1.0305 1.1076-1.0305 1.0537-1.0305 1.0073-1.0305 0.96578-1.0305 0.92943-1.0305 0.89656-1.0305 0.86753-1.0304 0.84084-1.0305 0.81664-1.0305 0.79414-1.0305 0.77338-1.0305 0.75435-1.0305 0.73705-1.0304 0.72044-1.0305 0.70418-1.0305 0.69033-1.0305 0.67649-1.0305 0.66404-1.0305 0.65123-1.0305 0.64014-1.0305 0.62909-1.0305 0.61836-1.0305 0.60869-1.0305 0.59932-1.0305 0.59032-1.0305 0.58167-1.0305 0.57372-1.0305 0.56543-1.0305 0.55814-1.0305 0.55089-1.0305 0.54327-1.0305 0.5367-1.0305 0.53047-1.0305 0.52425-1.0305 0.51799-1.0305 0.51248-1.0305 0.50659-1.0305 0.50104-1.0305 0.49553-1.0305 0.49102-1.0305 0.48548-1.0305 0.48098-1.0305 0.47614-1.0305 0.47165-1.0305 0.46747-1.0305 0.463-1.0305 0.45849-1.0305 0.45502-1.0305 0.45019-1.0305 0.44675-1.0305 0.4429-1.0305 0.43947-1.0305 0.436-1.0305 0.43219-1.0305 0.42873-1.0305 0.42563-1.0305 0.42215-1.0305 0.4194-1.0305 0.41628-1.0305 0.41247-1.5379 0.45979-2.1051 0.35685h-7.1409"
          stroke="#000"
          stroke-width=".75"
        />
        <path
          transform="matrix(1.3333 0 0 -1.3333 57.701 255.11)"
          d="m113.36 1.1865-1.0305 5.7517-1.0305 2.8022-1.0305 2.1596-1.0305 1.8239-1.0305 1.6091-1.0305 1.4544-1.0305 1.3388-1.0305 1.2464-1.0305 1.1706-1.0305 1.1076-1.0305 1.0537-1.0305 1.0073-1.0305 0.96578-1.0305 0.92943-1.0305 0.89656-1.0305 0.86753-1.0304 0.84084-1.0305 0.81664-1.0305 0.79414-1.0305 0.77338-1.0305 0.75435-1.0305 0.73705-1.0304 0.72044-1.0305 0.70418-1.0305 0.69033-1.0305 0.67649-1.3119 0.55147-2.3813 0.59494-73.802 0.16885"
          stroke="#000"
          stroke-width=".75"
        />
      </g>
      <g>
        <g stroke-width=".74729">
          <ellipse cx="173.43" cy="171.13" rx="1.6264" ry="1.6264" stroke="#f00"/>
          <ellipse cx="254.1" cy="179.75" rx="1.6264" ry="1.6264" stroke="#090"/>
          <ellipse cx="115.76" cy="164.44" rx="1.6264" ry="1.6264" stroke="#f50"/>
          <ellipse cx="135.65" cy="182.33" rx="1.6264" ry="1.6264" stroke="#f50"/>
          <ellipse cx="205.67" cy="164.55" rx="1.6264" ry="1.6264" stroke="#f00"/>
          <ellipse cx="100.03" cy="178.23" rx="1.6264" ry="1.6264" stroke="#000"/>
          <ellipse cx="70.079" cy="206.72" rx="1.6264" ry="1.6264" stroke="#000"/>
        </g>
        <path d="m254.25 179.81h60.787" stroke="#090"/>
        <path d="m269.57 84.405h28.443" marker-end="url(#marker46)" marker-start="url(#ArrowWide)" stroke="#000"/>
      </g>
    </g>
    <g>
      <rect x="207.71" y="40.825" width="5.3065" height="26.957" fill="#fff" stroke="#000"/>
      <text x="157.28532" y="53.77322" fill="#ffffff" font-family="Sans" font-size="10.667px" xml:space="preserve">
        <tspan x="157.28532" y="53.77322" fill="#000000" font-size="10.667px">stop line</tspan>
      </text>
      <text x="276.52887" y="104.99458" fill="#ffffff" font-family="Sans" font-size="10.667px" xml:space="preserve">
        <tspan x="276.52887" y="104.99458" fill="#000000" font-size="10.667px">stop_distance_from_crosswalk_limit</tspan>
      </text>
    </g>
  </g>
</svg>
